<mxfile host="app.diagrams.net" modified="2022-05-05T07:56:39.176Z" agent="5.0 (Windows NT 10.0; Win64; x64) AppleWebKit/537.36 (KHTML, like Gecko) Chrome/100.0.4896.127 Safari/537.36 Edg/100.0.1185.50" etag="k7pgro1SJSNIVeXQTXrl" version="18.0.0" type="github">
  <diagram id="E5w15fLGFdyEd21M_DHC" name="Page-1">
    <mxGraphModel dx="903" dy="476" grid="1" gridSize="10" guides="1" tooltips="1" connect="1" arrows="1" fold="1" page="1" pageScale="1" pageWidth="827" pageHeight="1169" math="0" shadow="0">
      <root>
        <mxCell id="0" />
        <mxCell id="1" parent="0" />
        <mxCell id="KzOrCSgJsxUHCnoUjlhp-8" style="edgeStyle=none;rounded=0;orthogonalLoop=1;jettySize=auto;html=1;exitX=0.5;exitY=1;exitDx=0;exitDy=0;entryX=0.5;entryY=0;entryDx=0;entryDy=0;" edge="1" parent="1" source="KzOrCSgJsxUHCnoUjlhp-1" target="KzOrCSgJsxUHCnoUjlhp-2">
          <mxGeometry relative="1" as="geometry" />
        </mxCell>
        <mxCell id="KzOrCSgJsxUHCnoUjlhp-1" value="每天上午6点执行" style="rounded=1;whiteSpace=wrap;html=1;" vertex="1" parent="1">
          <mxGeometry x="230" y="40" width="120" height="70" as="geometry" />
        </mxCell>
        <mxCell id="KzOrCSgJsxUHCnoUjlhp-9" style="edgeStyle=none;rounded=0;orthogonalLoop=1;jettySize=auto;html=1;exitX=0.5;exitY=1;exitDx=0;exitDy=0;entryX=0.5;entryY=0;entryDx=0;entryDy=0;" edge="1" parent="1" source="KzOrCSgJsxUHCnoUjlhp-2" target="KzOrCSgJsxUHCnoUjlhp-6">
          <mxGeometry relative="1" as="geometry" />
        </mxCell>
        <mxCell id="KzOrCSgJsxUHCnoUjlhp-12" style="edgeStyle=orthogonalEdgeStyle;rounded=0;orthogonalLoop=1;jettySize=auto;html=1;exitX=1;exitY=0.5;exitDx=0;exitDy=0;entryX=0.5;entryY=0;entryDx=0;entryDy=0;" edge="1" parent="1" source="KzOrCSgJsxUHCnoUjlhp-2" target="KzOrCSgJsxUHCnoUjlhp-10">
          <mxGeometry relative="1" as="geometry" />
        </mxCell>
        <mxCell id="KzOrCSgJsxUHCnoUjlhp-2" value="是否是每月的1号" style="rhombus;whiteSpace=wrap;html=1;" vertex="1" parent="1">
          <mxGeometry x="180" y="140" width="220" height="80" as="geometry" />
        </mxCell>
        <mxCell id="KzOrCSgJsxUHCnoUjlhp-6" value="删除上月rpt_target_zx_counselors&lt;br&gt;的记录，重新生成上个月记录" style="rounded=0;whiteSpace=wrap;html=1;" vertex="1" parent="1">
          <mxGeometry x="205" y="280" width="170" height="80" as="geometry" />
        </mxCell>
        <mxCell id="KzOrCSgJsxUHCnoUjlhp-10" value="&lt;span style=&quot;&quot;&gt;删除当前月rpt_target_zx_counselors&lt;/span&gt;&lt;br style=&quot;&quot;&gt;&lt;span style=&quot;&quot;&gt;的记录，重新生成这个月记录&lt;/span&gt;" style="rounded=0;whiteSpace=wrap;html=1;" vertex="1" parent="1">
          <mxGeometry x="460" y="280" width="160" height="80" as="geometry" />
        </mxCell>
        <mxCell id="KzOrCSgJsxUHCnoUjlhp-15" value="是" style="text;html=1;strokeColor=none;fillColor=none;align=center;verticalAlign=middle;whiteSpace=wrap;rounded=0;" vertex="1" parent="1">
          <mxGeometry x="270" y="230" width="60" height="30" as="geometry" />
        </mxCell>
        <mxCell id="KzOrCSgJsxUHCnoUjlhp-16" value="否&lt;br&gt;" style="text;html=1;align=center;verticalAlign=middle;resizable=0;points=[];autosize=1;strokeColor=none;fillColor=none;" vertex="1" parent="1">
          <mxGeometry x="445" y="160" width="30" height="20" as="geometry" />
        </mxCell>
      </root>
    </mxGraphModel>
  </diagram>
</mxfile>
